# xmcd
#
# Track frame offsets:
#	150
#	12692
#	31380
#	55932
#	70020
#	83370
#	95967
#	107402
#	130387
#	142687
#
# Disc length: 2054
#
# Revision: 2
# Processed by: cddbd v1.5.1PL0 Copyright (c) Steve Scherf et al.
# Submitted via: audiograbber 1.81.02
# Normalized: r1:DSETVAR1,TDELIM( - )
#
DISCID=7e08040a
DTITLE=Various Artist - Basic Blues - Volume 3
DYEAR=1900
DGENRE=
TTITLE0=Muddy Waters - (I'm Your) Hoochie Coochie Man
TTITLE1=Bobby Bland - They Call It Stormy Monday
TTITLE2=B.B. King - The Thrill Is Gone
TTITLE3=Koko Taylor - I Got What It Takes
TTITLE4=Little Milton - Who's Cheating Who?
TTITLE5=Muddy Waters - Can't Get No Grindin' (What's The Matter With The Mill)
TTITLE6=Junior Parker - Stand By Me
TTITLE7=John Lee Hooker - Tantalizing With The Blues
TTITLE8=Joe Turner - Doggin' The Dog
TTITLE9=Bobby Bland/Little Jr. Parker - Mother-In-Law Blues
EXTD=
EXTT0=
EXTT1=
EXTT2=
EXTT3=
EXTT4=
EXTT5=
EXTT6=
EXTT7=
EXTT8=
EXTT9=
PLAYORDER=
